<svg viewBox="0 0 1024 1024" xmlns="http://www.w3.org/2000/svg" width="1em" height="1em"><path d="M898.844 216.178c34.134 0 68.267 28.444 68.267 68.266V824.89c0 39.822-34.133 68.267-68.267 68.267H125.156c-39.823 0-68.267-34.134-68.267-68.267V284.444c0-39.822 34.133-68.266 68.267-68.266h773.688m0-56.89H125.156C56.889 159.289 0 216.179 0 284.445V824.89c0 68.267 56.889 125.155 125.156 125.155h768c68.266 0 125.155-56.888 125.155-125.155V284.444c5.689-68.266-51.2-125.155-119.467-125.155z"/><path d="M341.333 386.844v341.334H227.556V386.844h113.777m5.69-56.888H221.866c-28.445 0-51.2 22.755-51.2 51.2v358.4c0 28.444 22.755 51.2 51.2 51.2h125.155c28.445-5.69 51.2-28.445 51.2-51.2v-358.4c0-28.445-22.755-51.2-51.2-51.2zm506.31 85.333H512c-17.067 0-28.444-17.067-28.444-28.445S494.933 358.4 512 358.4h341.333c17.067 0 28.445 11.378 28.445 28.444S870.4 415.29 853.333 415.29zm0 170.667H512c-17.067 0-28.444-11.378-28.444-28.445s11.377-28.444 28.444-28.444h341.333c17.067 0 28.445 11.377 28.445 28.444s-11.378 28.445-28.445 28.445zm0 176.355H512c-17.067 0-28.444-11.378-28.444-28.444s11.377-28.445 28.444-28.445h341.333c17.067 0 28.445 11.378 28.445 28.445S870.4 762.31 853.333 762.31z"/></svg>
