<svg viewBox="0 0 1024 1024" version="1.1" xmlns="http://www.w3.org/2000/svg"><path d="M512 85.333333c-235.306667 0-426.666667 191.36-426.666667 426.666667s191.36 426.666667 426.666667 426.666667 426.666667-191.36 426.666667-426.666667-191.36-426.666667-426.666667-426.666667z m88.426667 367.573334L426.666667 535.893333V362.133333l173.76 90.773334zM512 874.666667c-29.44 0-58.026667-3.52-85.333333-10.133334V606.826667l259.093333-123.733334a32 32 0 0 0 1.066667-57.28L410.026667 281.28c-1.066667-0.64-2.133333-1.066667-3.2-1.493333-0.853333-0.426667-1.706667-0.746667-2.666667-0.96-0.853333-0.32-1.813333-0.533333-2.666667-0.746667-0.426667-0.106667-0.746667-0.213333-1.066666-0.213333a10.346667 10.346667 0 0 0-2.453334-0.32c-1.066667-0.106667-2.24-0.213333-3.306666-0.213334-1.6 0-3.093333 0.106667-4.586667 0.426667-1.173333 0.106667-2.346667 0.32-3.413333 0.64a24.533333 24.533333 0 0 0-4.48 1.493333c-0.533333 0.213333-1.173333 0.533333-1.706667 0.746667a24.768 24.768 0 0 0-5.76 3.733333c-1.28 0.96-2.453333 2.026667-3.52 3.306667-0.853333 0.853333-1.493333 1.706667-2.133333 2.56-0.853333 1.066667-1.6 2.24-2.24 3.413333-0.64 1.066667-1.173333 2.133333-1.6 3.2-0.746667 1.6-1.28 3.2-1.6 4.906667-0.32 1.066667-0.533333 2.24-0.64 3.306667-0.213333 1.386667-0.32 2.88-0.32 4.266666v533.12C237.013333 785.493333 149.333333 658.773333 149.333333 512c0-200 162.666667-362.666667 362.666667-362.666667s362.666667 162.666667 362.666667 362.666667-162.666667 362.666667-362.666667 362.666667z" p-id="2754"></path></svg>