<svg class="icon" viewBox="0 0 1024 1024" xmlns="http://www.w3.org/2000/svg"><path d="M511.421 694.124a49.541 49.541 0 0 0-49.745 49.745 49.541 49.541 0 0 0 49.745 49.757 49.546 49.546 0 0 0 49.757-49.757 49.551 49.551 0 0 0-49.757-49.745z" /><path d="M973.01 699.648 663.444 157.911c-33.172-55.28-88.448-88.443-149.253-88.443-60.81 0-116.085 33.168-149.258 88.443L49.843 699.648c-33.172 55.28-33.172 121.615 0 171.372 33.168 55.275 88.443 82.913 149.253 82.913h624.66c60.811 5.54 116.087-27.638 149.249-82.913 33.177-55.281 33.177-116.091.005-171.372zm-71.86 132.675c-16.578 27.637-49.755 49.756-82.918 49.756h-624.66c-33.168 0-66.335-16.584-82.919-44.227-16.588-27.638-16.588-66.335 0-93.977l315.085-541.743c16.589-27.637 49.756-49.75 82.919-49.75 33.172 0 66.334 16.578 82.918 49.75l309.57 541.737c22.119 22.119 22.119 60.816.006 88.454z" /><path d="M565.58 406c.344-2.498.59-5.032.59-7.628 0-30.239-24.51-54.748-54.743-54.748-30.24 0-54.749 24.514-54.749 54.748 0 2.596.246 5.125.59 7.624l17.172 221.22h.03c1.629 18.99 17.542 33.904 36.957 33.904s35.322-14.915 36.956-33.905h.01l17.188-221.214z" /></svg>