<svg viewBox="0 0 1024 1024" version="1.1" xmlns="http://www.w3.org/2000/svg" width="32" height="32"><path d="M827 92c57.96 0 105 47.04 105 105v299.58a34.98 34.98 0 1 1-70.02 0V372.02H162.02v454.98c0 18.3 14.1 33.54 32.4 34.92l2.58 0.06h274.8a34.98 34.98 0 1 1 0 70.02H197A105 105 0 0 1 92 827V197C92 139.04 139.04 92 197 92h630z m-96.18 402.48c73.68 0 112.02 49.2 113.7 123.96A105 105 0 0 1 932 722v105A105 105 0 0 1 827 932h-175.02a105 105 0 0 1-105-105V722A105 105 0 0 1 617 623c0.84-78.6 38.4-128.52 113.82-128.52z m96.18 192.54h-175.02a34.98 34.98 0 0 0-34.98 34.98v105c0 19.32 15.66 34.98 34.98 34.98h175.02a34.98 34.98 0 0 0 34.98-34.98V722a34.98 34.98 0 0 0-34.98-34.98z m-445.02-35.04a34.98 34.98 0 1 1 0 70.02H267.02a34.98 34.98 0 1 1 0-70.02h114.96z m348.84-87.48c-30.06 0-42.12 13.8-43.68 52.5h87.36c-1.2-37.8-13.92-52.5-43.68-52.5zM529.52 477.02a34.98 34.98 0 1 1 0 69.96H267.02a34.98 34.98 0 0 1 0-69.96h262.5z m297.48-315H197a34.98 34.98 0 0 0-34.98 34.98V302h699.96V197a34.98 34.98 0 0 0-32.4-34.92l-2.58-0.06z"></path></svg>
