<svg width="260" height="260" xmlns="http://www.w3.org/2000/svg" version="1.1">
 <g>
  <title>Layer 1</title>
  <path fill="#165dff" d="m130.82499,12.095l101.4,59.14a0.56,0.56 0 0 1 0.28,0.48l-0.53,117.47a0.56,0.56 0 0 1 -0.28,0.48l-101.87,58.24a0.56,0.56 0 0 1 -0.56,0l-101.49,-59.17a0.56,0.56 0 0 1 -0.28,-0.48l0.53,-117.38a0.56,0.56 0 0 1 0.28,-0.48l101.96,-58.3a0.56,0.56 0 0 1 0.56,0zm-76.62,71.85a0.73,0.73 0 0 0 -0.37,0.63l-0.37,88.23a0.73,0.73 0 0 0 0.36,0.63l76.32,44.49a0.73,0.73 0 0 0 0.73,0l76.58,-43.79a0.73,0.73 0 0 0 0.37,-0.63l0.38,-88.33a0.73,0.73 0 0 0 -0.36,-0.63l-76.23,-44.45a0.73,0.73 0 0 0 -0.73,0l-76.68,43.85z" id="svg_1" stroke-width="10"/>
  <path fill="#165dff" d="m130.4019,100.09154q-0.35,-0.99 -0.69,0q-21.83,63.21 -24.68,71.44q-0.15,0.43 -0.6,0.43l-23.43,0q-0.63,0 -0.41,-0.59l34.7,-93.93q0.18,-0.48 0.69,-0.48l28.14,0q0.44,0 0.59,0.41l34.69,93.89q0.25,0.7 -0.49,0.7l-23.19,0q-0.53,0 -0.71,-0.5l-24.61,-71.37z" id="svg_2" stroke-width="0"/>
  <line stroke="#ff0000" x1="123.21922" y1="143.98865" x2="136.78078" y2="143.92672" id="svg_3" fill="none" stroke-linecap="round" stroke-miterlimit="5" stroke-width="15"/>
 </g>

</svg>